<svg version="1.1" viewBox="0.0 0.0 1280.0 640.0" fill="none" stroke="none" stroke-linecap="square" stroke-miterlimit="10" xmlns:xlink="http://www.w3.org/1999/xlink" xmlns="http://www.w3.org/2000/svg"><clipPath id="p.0"><path d="m0 0l1280.0 0l0 640.0l-1280.0 0l0 -640.0z" clip-rule="nonzero"/></clipPath><g clip-path="url(#p.0)"><path fill="#000000" fill-opacity="0.0" d="m0 0l1280.0 0l0 640.0l-1280.0 0z" fill-rule="evenodd"/><path fill="#000000" fill-opacity="0.0" d="m23.653543 94.6811l335.55905 0.94488525" fill-rule="evenodd"/><path stroke="#666666" stroke-width="24.0" stroke-linejoin="round" stroke-linecap="butt" d="m23.653543 94.6811l335.55905 0.94488525" fill-rule="evenodd"/><path fill="#000000" fill-opacity="0.0" d="m23.653543 210.69751l335.55905 0.94488525" fill-rule="evenodd"/><path stroke="#666666" stroke-width="24.0" stroke-linejoin="round" stroke-linecap="butt" d="m23.653543 210.69751l335.55905 0.94488525" fill-rule="evenodd"/><path fill="#000000" fill-opacity="0.0" d="m23.653543 500.8645l335.55905 0.94488525" fill-rule="evenodd"/><path stroke="#666666" stroke-width="24.0" stroke-linejoin="round" stroke-linecap="butt" d="m23.653543 500.8645l335.55905 0.94488525" fill-rule="evenodd"/><path fill="#000000" fill-opacity="0.0" d="m23.653543 385.00558l202.70865 0.06298828" fill-rule="evenodd"/><path stroke="#666666" stroke-width="24.0" stroke-linejoin="round" stroke-linecap="butt" d="m23.653543 385.00558l202.70865 0.06298828" fill-rule="evenodd"/><path fill="#000000" fill-opacity="0.0" d="m23.653543 153.13025l202.70865 0.06298828" fill-rule="evenodd"/><path stroke="#666666" stroke-width="24.0" stroke-linejoin="round" stroke-linecap="butt" d="m23.653543 153.13025l202.70865 0.06298828" fill-rule="evenodd"/><path fill="#000000" fill-opacity="0.0" d="m23.653543 269.14667l202.70865 0.06298828" fill-rule="evenodd"/><path stroke="#666666" stroke-width="24.0" stroke-linejoin="round" stroke-linecap="butt" d="m23.653543 269.14667l202.70865 0.06298828" fill-rule="evenodd"/><path fill="#000000" fill-opacity="0.0" d="m23.653543 443.36023l85.921265 -0.78738403" fill-rule="evenodd"/><path stroke="#666666" stroke-width="24.0" stroke-linejoin="round" stroke-linecap="butt" d="m23.653543 443.36023l85.921265 -0.78738403" fill-rule="evenodd"/><path fill="#000000" fill-opacity="0.0" d="m23.653543 327.5013l85.921265 -0.78741455" fill-rule="evenodd"/><path stroke="#666666" stroke-width="24.0" stroke-linejoin="round" stroke-linecap="butt" d="m23.653543 327.5013l85.921265 -0.78741455" fill-rule="evenodd"/><path fill="#000000" fill-opacity="0.0" d="m23.653543 560.1011l85.921265 -0.78741455" fill-rule="evenodd"/><path stroke="#666666" stroke-width="24.0" stroke-linejoin="round" stroke-linecap="butt" d="m23.653543 560.1011l85.921265 -0.78741455" fill-rule="evenodd"/><path fill="#000000" fill-opacity="0.0" d="m920.8688 558.7231l335.55908 0.94488525" fill-rule="evenodd"/><path stroke="#666666" stroke-width="24.0" stroke-linejoin="round" stroke-linecap="butt" d="m920.8688 558.7231l335.55908 0.94488525" fill-rule="evenodd"/><path fill="#000000" fill-opacity="0.0" d="m920.8688 442.04135l335.55908 0.94485474" fill-rule="evenodd"/><path stroke="#666666" stroke-width="24.0" stroke-linejoin="round" stroke-linecap="butt" d="m920.8688 442.04135l335.55908 0.94485474" fill-rule="evenodd"/><path fill="#000000" fill-opacity="0.0" d="m920.8688 500.38223l335.55908 0.94485474" fill-rule="evenodd"/><path stroke="#666666" stroke-width="24.0" stroke-linejoin="round" stroke-linecap="butt" d="m920.8688 500.38223l335.55908 0.94485474" fill-rule="evenodd"/><path fill="#000000" fill-opacity="0.0" d="m920.8688 384.58234l202.70862 0.0630188" fill-rule="evenodd"/><path stroke="#666666" stroke-width="24.0" stroke-linejoin="round" stroke-linecap="butt" d="m920.8688 384.58234l202.70862 0.0630188" fill-rule="evenodd"/><path fill="#000000" fill-opacity="0.0" d="m920.8688 327.12335l202.70862 0.06298828" fill-rule="evenodd"/><path stroke="#666666" stroke-width="24.0" stroke-linejoin="round" stroke-linecap="butt" d="m920.8688 327.12335l202.70862 0.06298828" fill-rule="evenodd"/><path fill="#000000" fill-opacity="0.0" d="m920.8688 269.66437l202.70862 0.06298828" fill-rule="evenodd"/><path stroke="#666666" stroke-width="24.0" stroke-linejoin="round" stroke-linecap="butt" d="m920.8688 269.66437l202.70862 0.06298828" fill-rule="evenodd"/><path fill="#000000" fill-opacity="0.0" d="m920.8688 212.26837l85.921265 -0.7873993" fill-rule="evenodd"/><path stroke="#666666" stroke-width="24.0" stroke-linejoin="round" stroke-linecap="butt" d="m920.8688 212.26837l85.921265 -0.7873993" fill-rule="evenodd"/><path fill="#000000" fill-opacity="0.0" d="m920.8688 154.08498l85.921265 -0.7873993" fill-rule="evenodd"/><path stroke="#666666" stroke-width="24.0" stroke-linejoin="round" stroke-linecap="butt" d="m920.8688 154.08498l85.921265 -0.7873993" fill-rule="evenodd"/><path fill="#000000" fill-opacity="0.0" d="m920.8688 95.90157l85.921265 -0.7873993" fill-rule="evenodd"/><path stroke="#666666" stroke-width="24.0" stroke-linejoin="round" stroke-linecap="butt" d="m920.8688 95.90157l85.921265 -0.7873993" fill-rule="evenodd"/><path fill="#000000" fill-opacity="0.0" d="m307.46194 275.67453l520.28345 0l0 103.433075l-520.28345 0z" fill-rule="evenodd"/><path fill="#e69138" d="m318.58694 340.50015l6.03125 -0.9375q0.515625 3.609375 2.828125 5.546875q2.3125 1.921875 6.484375 1.921875q4.203125 0 6.234375 -1.703125q2.03125 -1.703125 2.03125 -4.015625q0 -2.0625 -1.796875 -3.25q-1.25 -0.8125 -6.234375 -2.0625q-6.703125 -1.6875 -9.296875 -2.921875q-2.578125 -1.234375 -3.921875 -3.421875q-1.34375 -2.1875 -1.34375 -4.828125q0 -2.40625 1.09375 -4.453125q1.109375 -2.046875 3.015625 -3.40625q1.421875 -1.046875 3.875 -1.765625q2.453125 -0.734375 5.265625 -0.734375q4.21875 0 7.421875 1.21875q3.203125 1.21875 4.71875 3.3125q1.53125 2.078125 2.109375 5.5625l-5.96875 0.8125q-0.40625 -2.78125 -2.359375 -4.328125q-1.9375 -1.5625 -5.484375 -1.5625q-4.203125 0 -6.0 1.390625q-1.796875 1.375 -1.796875 3.25q0 1.171875 0.75 2.125q0.75 0.984375 2.34375 1.625q0.90625 0.34375 5.375 1.5625q6.46875 1.71875 9.015625 2.828125q2.5625 1.09375 4.015625 3.203125q1.453125 2.09375 1.453125 5.203125q0 3.046875 -1.78125 5.75q-1.765625 2.6875 -5.125 4.15625q-3.34375 1.46875 -7.578125 1.46875q-7.0 0 -10.6875 -2.90625q-3.671875 -2.921875 -4.6875 -8.640625zm37.101562 24.515625l0 -49.734375l5.5625 0l0 4.671875q1.953125 -2.734375 4.421875 -4.109375q2.484375 -1.375 6.0 -1.375q4.609375 0 8.125 2.375q3.515625 2.359375 5.3125 6.6875q1.796875 4.3125 1.796875 9.453125q0 5.515625 -1.984375 9.9375q-1.96875 4.421875 -5.75 6.78125q-3.78125 2.34375 -7.9375 2.34375q-3.046875 0 -5.46875 -1.28125q-2.421875 -1.296875 -3.984375 -3.25l0 17.5l-6.09375 0zm5.53125 -31.546875q0 6.9375 2.796875 10.25q2.8125 3.3125 6.8125 3.3125q4.0625 0 6.953125 -3.421875q2.890625 -3.4375 2.890625 -10.65625q0 -6.875 -2.828125 -10.28125q-2.8125 -3.421875 -6.75 -3.421875q-3.890625 0 -6.890625 3.640625q-2.984375 3.625 -2.984375 10.578125zm33.025757 17.765625l0 -49.625l6.09375 0l0 17.796875q4.265625 -4.9375 10.765625 -4.9375q4.0 0 6.9375 1.578125q2.953125 1.578125 4.21875 4.359375q1.28125 2.765625 1.28125 8.046875l0 22.78125l-6.09375 0l0 -22.78125q0 -4.578125 -1.984375 -6.65625q-1.984375 -2.078125 -5.609375 -2.078125q-2.703125 0 -5.09375 1.40625q-2.390625 1.40625 -3.40625 3.8125q-1.015625 2.390625 -1.015625 6.625l0 19.671875l-6.09375 0zm38.60388 -42.625l0 -7.0l6.09375 0l0 7.0l-6.09375 0zm0 42.625l0 -35.953125l6.09375 0l0 35.953125l-6.09375 0zm15.355621 0l0 -35.953125l5.484375 0l0 5.109375q3.96875 -5.921875 11.453125 -5.921875q3.25 0 5.96875 1.171875q2.734375 1.171875 4.078125 3.0625q1.359375 1.890625 1.90625 4.5q0.328125 1.6875 0.328125 5.921875l0 22.109375l-6.09375 0l0 -21.875q0 -3.71875 -0.71875 -5.5625q-0.703125 -1.84375 -2.515625 -2.9375q-1.8125 -1.109375 -4.25 -1.109375q-3.890625 0 -6.71875 2.46875q-2.828125 2.46875 -2.828125 9.375l0 19.640625l-6.09375 0zm34.494507 0l13.140625 -18.6875l-12.15625 -17.265625l7.625 0l5.515625 8.4375q1.5625 2.390625 2.5 4.015625q1.5 -2.234375 2.75 -3.953125l6.0625 -8.5l7.265625 0l-12.421875 16.921875l13.375 19.03125l-7.484375 0l-7.375 -11.171875l-1.96875 -3.015625l-9.4375 14.1875l-7.390625 0zm62.195312 -13.171875l5.984375 0.78125q-0.96875 6.203125 -5.015625 9.703125q-4.046875 3.5 -9.9375 3.5q-7.390625 0 -11.875 -4.8125q-4.484375 -4.828125 -4.484375 -13.84375q0 -5.8125 1.921875 -10.171875q1.9375 -4.375 5.875 -6.5625q3.953125 -2.1875 8.59375 -2.1875q5.859375 0 9.578125 2.96875q3.71875 2.953125 4.78125 8.40625l-5.9375 0.921875q-0.84375 -3.625 -3.0 -5.453125q-2.140625 -1.828125 -5.1875 -1.828125q-4.609375 0 -7.484375 3.296875q-2.875 3.296875 -2.875 10.4375q0 7.25 2.765625 10.53125q2.78125 3.28125 7.25 3.28125q3.59375 0 6.0 -2.1875q2.40625 -2.203125 3.046875 -6.78125zm11.0703125 13.171875l0 -49.625l6.09375 0l0 49.625l-6.09375 0zm38.996216 -4.4375q-3.390625 2.875 -6.53125 4.0625q-3.125 1.1875 -6.703125 1.1875q-5.921875 0 -9.109375 -2.890625q-3.1875 -2.890625 -3.1875 -7.40625q0 -2.640625 1.203125 -4.8125q1.203125 -2.1875 3.140625 -3.5q1.953125 -1.328125 4.390625 -2.0q1.796875 -0.484375 5.421875 -0.921875q7.375 -0.875 10.859375 -2.09375q0.046875 -1.25 0.046875 -1.59375q0 -3.71875 -1.734375 -5.25q-2.328125 -2.0625 -6.9375 -2.0625q-4.296875 0 -6.34375 1.515625q-2.046875 1.5 -3.03125 5.328125l-5.96875 -0.8125q0.8125 -3.828125 2.671875 -6.171875q1.875 -2.359375 5.390625 -3.625q3.515625 -1.28125 8.15625 -1.28125q4.609375 0 7.484375 1.09375q2.875 1.078125 4.234375 2.71875q1.359375 1.640625 1.890625 4.140625q0.3125 1.5625 0.3125 5.625l0 8.125q0 8.5 0.390625 10.75q0.390625 2.25 1.53125 4.3125l-6.359375 0q-0.953125 -1.890625 -1.21875 -4.4375zm-0.515625 -13.609375q-3.3125 1.359375 -9.953125 2.3125q-3.75 0.53125 -5.3125 1.21875q-1.546875 0.671875 -2.40625 1.984375q-0.84375 1.296875 -0.84375 2.890625q0 2.4375 1.84375 4.0625q1.84375 1.625 5.40625 1.625q3.515625 0 6.25 -1.546875q2.75 -1.546875 4.046875 -4.21875q0.96875 -2.0625 0.96875 -6.09375l0 -2.234375zm13.166382 7.3125l6.03125 -0.9375q0.515625 3.609375 2.828125 5.546875q2.3125 1.921875 6.484375 1.921875q4.203125 0 6.234375 -1.703125q2.03125 -1.703125 2.03125 -4.015625q0 -2.0625 -1.796875 -3.25q-1.25 -0.8125 -6.234375 -2.0625q-6.703125 -1.6875 -9.296875 -2.921875q-2.578125 -1.234375 -3.921875 -3.421875q-1.34375 -2.1875 -1.34375 -4.828125q0 -2.40625 1.09375 -4.453125q1.109375 -2.046875 3.015625 -3.40625q1.421875 -1.046875 3.875 -1.765625q2.453125 -0.734375 5.265625 -0.734375q4.21875 0 7.421875 1.21875q3.203125 1.21875 4.71875 3.3125q1.53125 2.078125 2.109375 5.5625l-5.96875 0.8125q-0.40625 -2.78125 -2.359375 -4.328125q-1.9375 -1.5625 -5.484375 -1.5625q-4.203125 0 -6.0 1.390625q-1.796875 1.375 -1.796875 3.25q0 1.171875 0.75 2.125q0.75 0.984375 2.34375 1.625q0.90625 0.34375 5.375 1.5625q6.46875 1.71875 9.015625 2.828125q2.5625 1.09375 4.015625 3.203125q1.453125 2.09375 1.453125 5.203125q0 3.046875 -1.78125 5.75q-1.765625 2.6875 -5.125 4.15625q-3.34375 1.46875 -7.578125 1.46875q-7.0 0 -10.6875 -2.90625q-3.671875 -2.921875 -4.6875 -8.640625zm34.664062 0l6.03125 -0.9375q0.515625 3.609375 2.828125 5.546875q2.3125 1.921875 6.484375 1.921875q4.203125 0 6.234375 -1.703125q2.03125 -1.703125 2.03125 -4.015625q0 -2.0625 -1.796875 -3.25q-1.25 -0.8125 -6.234375 -2.0625q-6.703125 -1.6875 -9.296875 -2.921875q-2.578125 -1.234375 -3.921875 -3.421875q-1.34375 -2.1875 -1.34375 -4.828125q0 -2.40625 1.09375 -4.453125q1.109375 -2.046875 3.015625 -3.40625q1.421875 -1.046875 3.875 -1.765625q2.453125 -0.734375 5.265625 -0.734375q4.21875 0 7.421875 1.21875q3.203125 1.21875 4.71875 3.3125q1.53125 2.078125 2.109375 5.5625l-5.96875 0.8125q-0.40625 -2.78125 -2.359375 -4.328125q-1.9375 -1.5625 -5.484375 -1.5625q-4.203125 0 -6.0 1.390625q-1.796875 1.375 -1.796875 3.25q0 1.171875 0.75 2.125q0.75 0.984375 2.34375 1.625q0.90625 0.34375 5.375 1.5625q6.46875 1.71875 9.015625 2.828125q2.5625 1.09375 4.015625 3.203125q1.453125 2.09375 1.453125 5.203125q0 3.046875 -1.78125 5.75q-1.765625 2.6875 -5.125 4.15625q-3.34375 1.46875 -7.578125 1.46875q-7.0 0 -10.6875 -2.90625q-3.671875 -2.921875 -4.6875 -8.640625zm50.414062 5.28125l0.875 5.390625q-2.5625 0.53125 -4.59375 0.53125q-3.328125 0 -5.15625 -1.046875q-1.828125 -1.046875 -2.578125 -2.75q-0.734375 -1.71875 -0.734375 -7.203125l0 -20.6875l-4.46875 0l0 -4.734375l4.46875 0l0 -8.90625l6.0625 -3.65625l0 12.5625l6.125 0l0 4.734375l-6.125 0l0 21.03125q0 2.609375 0.3125 3.359375q0.328125 0.734375 1.046875 1.171875q0.734375 0.4375 2.09375 0.4375q1.015625 0 2.671875 -0.234375zm3.6834717 -12.515625q0 -10.0 5.5625 -14.796875q4.625 -4.0 11.296875 -4.0q7.421875 0 12.125 4.859375q4.703125 4.859375 4.703125 13.421875q0 6.9375 -2.078125 10.921875q-2.078125 3.96875 -6.0625 6.171875q-3.984375 2.203125 -8.6875 2.203125q-7.546875 0 -12.203125 -4.84375q-4.65625 -4.84375 -4.65625 -13.9375zm6.265625 0q0 6.90625 3.015625 10.34375q3.015625 3.421875 7.578125 3.421875q4.546875 0 7.546875 -3.453125q3.015625 -3.453125 3.015625 -10.515625q0 -6.671875 -3.03125 -10.109375q-3.03125 -3.4375 -7.53125 -3.4375q-4.5625 0 -7.578125 3.421875q-3.015625 3.421875 -3.015625 10.328125zm58.025757 4.796875l5.984375 0.78125q-0.96875 6.203125 -5.015625 9.703125q-4.046875 3.5 -9.9375 3.5q-7.390625 0 -11.875 -4.8125q-4.484375 -4.828125 -4.484375 -13.84375q0 -5.8125 1.921875 -10.171875q1.9375 -4.375 5.875 -6.5625q3.953125 -2.1875 8.59375 -2.1875q5.859375 0 9.578125 2.96875q3.71875 2.953125 4.78125 8.40625l-5.9375 0.921875q-0.84375 -3.625 -3.0 -5.453125q-2.140625 -1.828125 -5.1875 -1.828125q-4.609375 0 -7.484375 3.296875q-2.875 3.296875 -2.875 10.4375q0 7.25 2.765625 10.53125q2.78125 3.28125 7.25 3.28125q3.59375 0 6.0 -2.1875q2.40625 -2.203125 3.046875 -6.78125zm11.1328125 13.171875l0 -35.953125l5.484375 0l0 5.453125q2.09375 -3.828125 3.875 -5.046875q1.78125 -1.21875 3.90625 -1.21875q3.09375 0 6.265625 1.96875l-2.09375 5.65625q-2.234375 -1.328125 -4.46875 -1.328125q-2.0 0 -3.59375 1.203125q-1.59375 1.203125 -2.265625 3.328125q-1.015625 3.25 -1.015625 7.109375l0 18.828125l-6.09375 0z" fill-rule="nonzero"/><path fill="#f6b26b" d="m816.4514 301.89502l42.425232 25.496063l-42.425232 25.496063z" fill-rule="evenodd"/><path stroke="#f6b26b" stroke-width="1.0" stroke-linejoin="round" stroke-linecap="butt" d="m816.4514 301.89502l42.425232 25.496063l-42.425232 25.496063z" fill-rule="evenodd"/></g></svg>
